<?xml version="1.0" encoding="UTF-8"?>
<!DOCTYPE svg PUBLIC "-//W3C//DTD SVG 1.1//EN" "http://www.w3.org/Graphics/SVG/1.1/DTD/svg11.dtd">
<!-- Creator: CorelDRAW 2020 (64 Bit) -->
<svg xmlns="http://www.w3.org/2000/svg" xml:space="preserve" width="297mm" height="210mm" version="1.1" style="shape-rendering:geometricPrecision; text-rendering:geometricPrecision; image-rendering:optimizeQuality; fill-rule:evenodd; clip-rule:evenodd"
viewBox="0 0 29700 21000"
 xmlns:xlink="http://www.w3.org/1999/xlink"
 xmlns:xodm="http://www.corel.com/coreldraw/odm/2003">
 <defs>
  <style type="text/css">
   <![CDATA[
    .fil0 {fill:#FEFEFE}
    .fil1 {fill:black}
    .fil2 {fill:#787878}
   ]]>
  </style>
 </defs>
 <g id="Camada_x0020_1">
  <metadata id="CorelCorpID_0Corel-Layer"/>
  <g id="_2645536785088">
   <path class="fil0" d="M11792.48 8099.41c22.06,22.16 17.63,-31.77 20.55,40.04l-5.92 1226.24c-131.76,40.83 -1102.43,-22.05 -1265.81,18.73l-2.59 2940.49 -1264.33 -0.07 -4.24 -2958.95 -840.97 -1.51 3.84 -1265.23 840.28 -7.35c30.54,-990.63 -149.77,-1467.72 443.95,-2092.76 185.58,-195.37 478.97,-369.08 838.6,-421.86 344.58,-50.57 878.39,-10.24 1248.73,-16.77 6.77,153.58 16.13,1192.24 -8.03,1269.67 -210.99,-0.12 -421.98,0 -632.96,0 -212.54,-0.01 -388.98,-5.13 -509.55,120.49 -122.55,127.68 -113.75,311.32 -113.75,523.76 0.01,201.89 -8.12,421.31 1.79,624.2l1250.41 0.88zm1273.47 -2709.73c-11.9,-14.27 -48.48,-136.18 -100.51,-232.14 -35.11,-64.78 -96.92,-153.03 -137.64,-193.96 -164.9,-165.73 -401.85,-218.41 -425.9,-238.32 -113.41,10.09 -365.9,-8.42 -504.48,-8.42l-5579.99 0c-260.67,0 -768.08,-27.46 -995.95,14.6 -281.95,52.06 -478.73,231.05 -584.44,426.05 -151.5,279.45 -108.84,567.67 -108.84,917.31l-0.01 6083.1c-0.05,306.59 29.34,546.55 246.52,764.83 220.38,221.49 467.86,246.74 778.1,246.71l6078.46 0c340.63,0 633.98,41.57 902.82,-109.12 580.97,-325.64 440.25,-946.27 440.25,-1595.25l-8.39 -6075.39z"/>
   <path class="fil1" d="M10541.3 9384.42c23.54,-27.93 -33.7,-20.62 40.74,-25.3l1217.32 1.06 -6.88 -1260.77 -1250.41 -0.88c-9.91,-202.89 -1.78,-422.31 -1.79,-624.2 0,-212.44 -8.8,-396.08 113.75,-523.76 120.57,-125.62 297.01,-120.5 509.55,-120.49 210.98,0 421.97,-0.12 632.96,0 24.16,-77.43 14.8,-1116.09 8.03,-1269.67 -370.34,6.53 -904.15,-33.8 -1248.73,16.77 -359.63,52.78 -653.02,226.49 -838.6,421.86 -593.72,625.04 -413.41,1102.13 -443.95,2092.76l-840.28 7.35 -3.84 1265.23 840.97 1.51 4.24 2958.95 1264.33 0.07 2.59 -2940.49z"/>
   <path class="fil2" d="M10541.3 9384.42c163.38,-40.78 1134.05,22.1 1265.81,-18.73l5.92 -1226.24c-2.92,-71.81 1.51,-17.88 -20.55,-40.04l6.88 1260.77 -1217.32 -1.06c-74.44,4.68 -17.2,-2.63 -40.74,25.3z"/>
  </g>
 </g>
</svg>
