<?xml version="1.0" encoding="UTF-8"?>
<!DOCTYPE svg PUBLIC "-//W3C//DTD SVG 1.1//EN" "http://www.w3.org/Graphics/SVG/1.1/DTD/svg11.dtd">
<!-- Creator: CorelDRAW 2020 (64 Bit) -->
<svg xmlns="http://www.w3.org/2000/svg" xml:space="preserve" width="210mm" height="297mm" version="1.1" style="shape-rendering:geometricPrecision; text-rendering:geometricPrecision; image-rendering:optimizeQuality; fill-rule:evenodd; clip-rule:evenodd"
viewBox="0 0 21000 29700"
 xmlns:xlink="http://www.w3.org/1999/xlink"
 xmlns:xodm="http://www.corel.com/coreldraw/odm/2003">
 <defs>
  <style type="text/css">
   <![CDATA[
    .str0 {stroke:#FEFEFE;stroke-width:20;stroke-miterlimit:22.9256}
    .fil3 {fill:#FEFEFE}
    .fil1 {fill:#FEFEFE}
    .fil2 {fill:black}
    .fil0 {fill:black}
   ]]>
  </style>
 </defs>
 <g id="Camada_x0020_1">
  <metadata id="CorelCorpID_0Corel-Layer"/>
  <g id="_2645216129232">
   <path class="fil0" d="M10913.12 12918.09c-151.4,-1330.34 843.93,-2398.72 2012.33,-2520.84 1339.61,-140.01 2381.98,849.47 2504.98,2026.61 138.38,1324.36 -846.74,2371.79 -2006.16,2499.58 -1333.64,146.97 -2379.14,-845.28 -2511.15,-2005.35zm4483.27 -2882.06c412.68,-108.96 581.79,500.93 190.97,626.97 -432.29,139.44 -615.77,-514.77 -190.97,-626.97zm-4200.25 -923.38c-579.1,74.23 -894.69,334.21 -1160.84,623.76 -317.11,345 -422.52,762.36 -422.83,1360.23 -0.17,346.16 -19.66,3280.53 12.68,3549.6 63.89,532.14 346.97,916.65 623.29,1154.54 344.68,296.76 759.54,423.31 1361.14,422.77 630.01,-0.58 3139.09,31.11 3547.84,-15.16 521.21,-58.99 911.52,-348.39 1153.15,-623.56 294.66,-335.53 424.29,-774.91 424.02,-1359.56 -0.31,-631.18 30.82,-3133.59 -17.19,-3547.51 -60.37,-520.9 -341.67,-920.39 -620.39,-1154.89 -357.55,-300.78 -746.75,-424.6 -1359.55,-424.5 -354.13,0.05 -3265.23,-21.1 -3541.32,14.28z"/>
   <path class="fil1 str0" d="M11196.14 9112.65c276.09,-35.38 3187.19,-14.23 3541.32,-14.28 612.8,-0.1 1002,123.72 1359.55,424.5 278.72,234.5 560.02,633.99 620.39,1154.89 48.01,413.92 16.88,2916.33 17.19,3547.51 0.27,584.65 -129.36,1024.03 -424.02,1359.56 -241.63,275.17 -631.94,564.57 -1153.15,623.56 -408.75,46.27 -2917.83,14.58 -3547.84,15.16 -601.6,0.54 -1016.46,-126.01 -1361.14,-422.77 -276.32,-237.89 -559.4,-622.4 -623.29,-1154.54 -32.34,-269.07 -12.85,-3203.44 -12.68,-3549.6 0.31,-597.87 105.72,-1015.23 422.83,-1360.23 266.15,-289.55 581.74,-549.53 1160.84,-623.76zm-53.7 -658.92c-1127.71,126.37 -1996.72,981.82 -2165.6,2067.64 -43.67,280.99 -44.89,3853.32 -7.82,4184.71 123.87,1106.72 988.32,1995.45 2066.24,2148.7 344.66,49.03 1637.33,27.59 2073.97,27.59 660.36,0 1458.14,39.61 2099.71,-17.56 1104.64,-98.41 1999.11,-1009.69 2157,-2068.81 50.2,-336.75 27.99,-1639.95 27.99,-2070.77 0,-644.32 45.52,-1480.48 -20.5,-2100.24 -119.33,-1119.96 -990.52,-1996.75 -2062.92,-2159.08 -290.38,-43.94 -3836.89,-49.28 -4168.07,-12.18z"/>
   <path class="fil2" d="M12935.24 11064.62c-811.34,110.02 -1500.23,880.2 -1358.03,1842.84 119.92,811.81 876.38,1480.09 1844.35,1349.85 793.6,-106.78 1491.2,-894.55 1345.25,-1840.92 -125.71,-814.97 -866.68,-1482.6 -1831.57,-1351.77z"/>
   <path class="fil3" d="M12935.24 11064.62c964.89,-130.83 1705.86,536.8 1831.57,1351.77 145.95,946.37 -551.65,1734.14 -1345.25,1840.92 -967.97,130.24 -1724.43,-538.04 -1844.35,-1349.85 -142.2,-962.64 546.69,-1732.82 1358.03,-1842.84zm-2022.12 1853.47c132.01,1160.07 1177.51,2152.32 2511.15,2005.35 1159.42,-127.79 2144.54,-1175.22 2006.16,-2499.58 -123,-1177.14 -1165.37,-2166.62 -2504.98,-2026.61 -1168.4,122.12 -2163.73,1190.5 -2012.33,2520.84z"/>
   <path class="fil3" d="M15396.39 10036.03c-424.8,112.2 -241.32,766.41 190.97,626.97 390.82,-126.04 221.71,-735.93 -190.97,-626.97z"/>
  </g>
 </g>
</svg>
